<svg version="1.1" id="Layer_1" xmlns="http://www.w3.org/2000/svg" xmlns:xlink="http://www.w3.org/1999/xlink" x="0px" y="0px"
	 width="100%" viewBox="0 0 150 150" enable-background="new 0 0 150 150" xml:space="preserve">
<path fill="#000000" opacity="1.000000" stroke="none" 
	d="
M1.000000,65.000000 
	C1.000000,43.735516 1.000000,22.471029 1.000000,1.000000 
	C24.687160,1.000000 48.374924,1.000000 72.532295,1.429564 
	C72.673271,4.284853 72.344643,6.710578 71.588257,9.092823 
	C69.445290,9.074235 67.730080,9.099127 65.557373,9.089087 
	C61.739517,9.074897 58.379166,9.095639 54.552887,9.079577 
	C52.435909,9.028149 50.784855,9.000995 49.133804,9.001023 
	C41.067188,9.001163 41.067188,9.003727 40.541908,16.961754 
	C38.415657,17.009874 36.714680,17.044117 34.559147,17.057953 
	C25.062958,16.925180 25.062958,16.925180 24.526272,24.990677 
	C16.994835,25.050129 16.994835,25.050129 17.033127,32.441753 
	C17.162666,37.234562 17.872606,41.883751 10.963530,41.402966 
	C10.406898,41.364231 9.147640,43.916172 9.103666,45.292637 
	C8.892977,51.887680 8.988433,58.492500 8.534006,65.055603 
	C5.728601,65.011566 3.364301,65.005791 1.000000,65.000000 
z"/>
<path fill="#000000" opacity="1.000000" stroke="none" 
	d="
M81.000000,1.000000 
	C104.256897,1.000000 127.513794,1.000000 151.000000,1.000000 
	C151.000000,22.020338 151.000000,43.041512 150.574417,64.530861 
	C148.449844,64.948326 146.750839,64.897606 145.035385,64.389748 
	C145.008347,60.152721 145.294708,56.335575 144.827560,52.612991 
	C144.662079,51.294464 142.848419,49.825500 141.439331,49.129524 
	C140.238892,48.536598 138.539307,48.954254 137.039215,48.486835 
	C136.959518,45.690670 136.901154,43.332497 136.882080,40.534454 
	C137.037216,33.069668 137.037216,33.069782 130.078888,32.996994 
	C129.748322,32.993538 129.417816,32.984947 129.059570,32.513878 
	C129.016754,28.296951 128.910080,24.542267 129.017715,20.793736 
	C129.093674,18.149338 128.176453,16.773527 125.369415,16.999033 
	C123.908882,17.116365 122.438072,17.105877 120.537750,17.100216 
	C117.781235,17.009491 115.458893,16.971672 113.094742,16.493328 
	C112.915970,8.998602 112.915878,8.976665 105.748444,9.007569 
	C100.176292,9.031593 94.604424,9.119103 88.657196,9.132767 
	C87.528015,9.110114 86.774063,9.133093 85.611740,9.105194 
	C83.835800,9.011486 82.468216,8.968656 81.072830,8.487253 
	C81.030014,5.699120 81.015007,3.349560 81.000000,1.000000 
z"/>
<path fill="#928AD2" opacity="1.000000" stroke="none" 
	d="
M75.000000,151.000000 
	C73.611000,151.000000 72.222008,151.000000 70.330811,150.651062 
	C66.784927,145.923950 62.215416,145.875015 57.838894,146.760941 
	C51.967690,147.949463 46.870525,147.763306 42.439171,143.034134 
	C37.834526,138.120010 32.153629,135.534760 25.164860,135.886856 
	C23.140825,135.988846 21.047758,134.720612 19.445747,134.054855 
	C23.286987,134.022354 26.668819,134.015533 30.416485,133.981125 
	C32.411060,133.196518 34.028675,132.414383 35.670475,131.686844 
	C42.576813,128.626419 49.343616,125.390991 56.482288,131.671707 
	C57.594109,132.649887 61.509747,132.060501 62.870857,130.817963 
	C66.298538,127.688919 69.007538,123.772598 72.432785,120.102837 
	C78.218895,119.664124 83.576820,119.294426 88.948883,119.374832 
	C90.948723,129.515427 85.162010,132.282410 76.658531,133.127365 
	C81.930313,134.316498 86.781029,134.782196 91.632561,134.790970 
	C92.717499,134.792923 94.376740,133.408493 94.798286,132.294159 
	C97.364822,125.509697 103.940559,123.992363 109.384682,121.227318 
	C111.433228,120.186882 114.435341,121.023964 116.920258,121.343506 
	C115.197441,123.206459 113.128838,124.464478 111.986961,126.299248 
	C105.107742,137.352814 94.436234,141.564621 82.272972,142.965561 
	C75.957878,143.692917 74.567871,144.928497 75.000000,151.000000 
z"/>
<path fill="#8F86CD" opacity="1.000000" stroke="none" 
	d="
M18.986338,134.080536 
	C21.047758,134.720612 23.140825,135.988846 25.164860,135.886856 
	C32.153629,135.534760 37.834526,138.120010 42.439171,143.034134 
	C46.870525,147.763306 51.967690,147.949463 57.838894,146.760941 
	C62.215416,145.875015 66.784927,145.923950 69.914307,150.651062 
	C55.645771,151.000000 41.291542,151.000000 26.384563,150.643707 
	C23.827126,149.202103 21.569456,146.902313 19.864811,147.257401 
	C14.583961,148.357437 12.880211,145.763062 12.098932,141.460312 
	C11.524721,138.297943 9.592031,136.955704 6.486223,137.008972 
	C4.658071,137.040329 2.828779,137.005203 1.000000,137.000000 
	C1.000000,136.250000 1.000000,135.500000 1.444428,134.374191 
	C4.260300,133.969574 6.631744,133.940750 9.456644,133.935364 
	C12.935513,133.999390 15.960925,134.039963 18.986338,134.080536 
z"/>
<path fill="#948DD6" opacity="1.000000" stroke="none" 
	d="
M151.000000,136.000000 
	C151.000000,140.946014 151.000000,145.892014 151.000000,151.000000 
	C142.646317,151.000000 134.291824,151.000000 125.467201,150.593872 
	C123.694275,145.092758 122.391487,139.997742 121.541336,134.931290 
	C131.662643,135.306564 141.331314,135.653290 151.000000,136.000000 
z"/>
<path fill="#928BD4" opacity="1.000000" stroke="none" 
	d="
M121.088699,134.902740 
	C122.391487,139.997742 123.694275,145.092758 124.998535,150.593872 
	C109.979103,151.000000 94.958214,151.000000 79.501259,150.608093 
	C80.308868,149.158966 81.437828,147.389603 82.816032,147.167618 
	C88.840782,146.197220 94.937836,145.675705 101.389862,144.967987 
	C108.196106,141.617706 114.621147,138.290710 121.046768,134.942200 
	C121.047363,134.920685 121.088692,134.902740 121.088699,134.902740 
z"/>
<path fill="#8E86CC" opacity="1.000000" stroke="none" 
	d="
M101.008652,144.991272 
	C94.937836,145.675705 88.840782,146.197220 82.816032,147.167618 
	C81.437828,147.389603 80.308868,149.158966 79.032600,150.608093 
	C77.933327,151.000000 76.866661,151.000000 75.399994,151.000000 
	C74.567871,144.928497 75.957878,143.692917 82.272972,142.965561 
	C94.436234,141.564621 105.107742,137.352814 111.986961,126.299248 
	C113.128838,124.464478 115.197441,123.206459 117.296974,121.342026 
	C118.509758,120.995544 119.263359,120.988937 120.403458,120.989059 
	C122.798470,121.320900 124.806961,121.645996 126.853989,122.299347 
	C126.537971,123.414024 126.183426,124.200432 125.447937,124.991318 
	C123.596077,125.542023 121.856010,125.755280 120.699303,126.690247 
	C114.638885,131.588821 108.688515,136.626755 102.803192,141.735245 
	C101.924767,142.497742 101.593201,143.890244 101.008652,144.991272 
z"/>
<path fill="#9C92DD" opacity="1.000000" stroke="none" 
	d="
M151.000000,71.000000 
	C151.000000,77.354401 151.000000,83.708794 150.619293,90.532448 
	C147.120636,92.923004 144.002686,94.844307 140.503311,96.830238 
	C139.090912,96.984161 138.059921,97.073456 137.020386,96.733086 
	C136.990631,95.163506 136.969391,94.023590 136.991760,92.482193 
	C137.635849,88.388657 138.236313,84.696609 138.913956,80.655785 
	C139.266708,79.206169 139.542297,78.105324 139.886536,76.608765 
	C140.082901,73.956688 139.326691,71.207161 143.374420,70.917053 
	C146.215042,70.964188 148.607529,70.982094 151.000000,71.000000 
z"/>
<path fill="#9288CE" opacity="1.000000" stroke="none" 
	d="
M0.999999,92.000000 
	C1.000000,85.312355 1.000000,78.624710 1.413426,71.475098 
	C4.160888,70.667274 6.494924,70.321426 8.919256,70.370728 
	C10.008150,74.982269 11.483426,79.154182 11.882117,83.426559 
	C12.357712,88.523041 13.432814,92.997650 17.921322,96.370743 
	C17.592905,97.438248 17.226284,98.185799 16.521336,98.899963 
	C14.138407,97.908485 12.093806,96.950409 9.855626,95.700447 
	C6.774698,94.272377 3.887348,93.136192 0.999999,92.000000 
z"/>
<path fill="#8C84CA" opacity="1.000000" stroke="none" 
	d="
M1.000000,137.474121 
	C2.828779,137.005203 4.658071,137.040329 6.486223,137.008972 
	C9.592031,136.955704 11.524721,138.297943 12.098932,141.460312 
	C12.880211,145.763062 14.583961,148.357437 19.864811,147.257401 
	C21.569456,146.902313 23.827126,149.202103 25.915905,150.643707 
	C17.763693,151.000000 9.527384,151.000000 1.000000,151.000000 
	C1.000000,146.653671 1.000000,142.300964 1.000000,137.474121 
z"/>
<path fill="#B6ABFE" opacity="1.000000" stroke="none" 
	d="
M151.000000,135.562500 
	C141.331314,135.653290 131.662643,135.306564 121.541328,134.931290 
	C121.088692,134.902740 121.047363,134.920685 121.097588,134.603973 
	C122.803436,132.491364 124.459061,130.695450 126.501633,128.942596 
	C127.922668,128.934814 128.956757,128.883972 130.450150,128.903320 
	C134.942337,128.924667 138.975220,128.875809 143.447662,128.891220 
	C146.258133,128.970322 148.629074,128.985168 151.000000,129.000000 
	C151.000000,131.041672 151.000000,133.083328 151.000000,135.562500 
z"/>
<path fill="#302651" opacity="1.000000" stroke="none" 
	d="
M151.000000,128.550018 
	C148.629074,128.985168 146.258133,128.970322 143.320221,128.569427 
	C137.578857,123.351738 132.476807,123.611488 129.990845,128.833130 
	C128.956757,128.883972 127.922668,128.934814 126.381592,128.669830 
	C125.859352,127.231606 125.844116,126.109230 125.828880,124.986847 
	C126.183426,124.200432 126.537971,123.414024 126.927551,121.983032 
	C127.009048,120.908150 127.055511,120.477829 127.348289,119.952377 
	C128.004578,119.535538 128.414551,119.213829 129.246353,118.978065 
	C136.778793,119.376015 143.889389,119.688011 151.000000,120.000000 
	C151.000000,122.700012 151.000000,125.400024 151.000000,128.550018 
z"/>
<path fill="#2D244F" opacity="1.000000" stroke="none" 
	d="
M1.000000,128.000000 
	C1.000000,125.299370 1.000000,122.598747 1.411215,119.453094 
	C8.585611,118.653259 15.348794,118.298439 22.404228,118.169830 
	C23.171080,120.587585 23.645678,122.779121 23.653234,124.977219 
	C18.473143,125.695389 13.760090,126.407005 8.801810,127.449486 
	C6.037722,127.853569 3.518861,127.926781 1.000000,128.000000 
z"/>
<path fill="#333333" opacity="1.000000" stroke="none" 
	d="
M80.555832,1.000000 
	C81.015007,3.349560 81.030014,5.699120 80.784950,8.681718 
	C77.179344,12.591057 76.555870,15.488139 80.460167,19.212240 
	C84.087753,22.672407 86.852753,27.036909 89.808029,31.150284 
	C89.377594,31.511419 89.169685,31.753826 88.735321,31.870523 
	C87.649368,31.145693 86.822861,30.574883 85.823883,29.719067 
	C82.405525,25.755947 78.839920,22.303717 76.025719,18.320601 
	C74.137901,15.648643 73.315254,12.224108 72.016014,9.136303 
	C72.344643,6.710578 72.673271,4.284853 73.000954,1.429564 
	C75.370560,1.000000 77.741112,1.000000 80.555832,1.000000 
z"/>
<path fill="#4D4373" opacity="1.000000" stroke="none" 
	d="
M151.000000,119.583336 
	C143.889389,119.688011 136.778793,119.376015 129.299988,118.648483 
	C129.009003,117.794891 129.086197,117.356842 129.499222,116.835106 
	C130.261108,115.489418 130.687195,114.227409 131.498917,112.978256 
	C132.911530,113.011642 133.938477,113.032188 135.095673,113.373917 
	C138.595917,116.980438 142.317627,117.909126 146.734238,115.755852 
	C147.982330,115.147362 149.568756,115.232819 151.000000,115.000000 
	C151.000000,116.388893 151.000000,117.777779 151.000000,119.583336 
z"/>
<path fill="#423667" opacity="1.000000" stroke="none" 
	d="
M22.111977,117.943619 
	C15.348794,118.298439 8.585611,118.653259 1.411215,119.004044 
	C1.000000,117.611107 1.000000,116.222221 1.290809,114.595604 
	C5.741381,117.486481 8.372741,117.196442 13.487309,113.087761 
	C15.794077,113.135155 17.640059,113.191162 19.577950,113.499481 
	C20.407564,114.481812 21.145273,115.211830 21.939943,116.273094 
	C22.035261,117.050758 22.073618,117.497192 22.111977,117.943619 
z"/>
<path fill="#504383" opacity="1.000000" stroke="none" 
	d="
M19.486038,113.247169 
	C17.640059,113.191162 15.794077,113.135155 13.024817,113.062195 
	C8.401027,113.030151 4.700513,113.015076 1.000000,113.000000 
	C1.000000,112.555557 1.000000,112.111107 1.397146,111.330482 
	C6.731204,109.284042 11.671500,107.583397 16.599316,105.847328 
	C17.047525,105.689430 17.415590,105.304039 17.933971,105.415649 
	C18.526728,108.287064 19.006382,110.767120 19.486038,113.247169 
z"/>
<path fill="#52477F" opacity="1.000000" stroke="none" 
	d="
M151.000000,106.000000 
	C151.000000,108.042320 151.000000,110.084633 150.667313,112.563614 
	C149.891052,113.000572 149.447464,113.000870 148.878647,112.686020 
	C144.225418,107.199501 138.159363,107.886612 132.164459,107.661545 
	C132.072205,106.531906 132.050461,105.774902 132.289948,104.889175 
	C133.066971,104.185257 133.582748,103.610046 134.479538,103.088593 
	C138.185379,103.784233 141.510223,104.426132 145.106674,105.366905 
	C147.252197,105.777191 149.126099,105.888596 151.000000,106.000000 
z"/>
<path fill="#000000" opacity="1.000000" stroke="none" 
	d="
M1.000001,107.000000 
	C1.000000,103.969406 1.000000,100.938812 1.439163,97.454590 
	C4.215376,97.030960 6.552425,97.060959 8.932717,97.526367 
	C8.957144,100.300377 8.938327,102.638969 8.586124,105.141518 
	C5.835161,105.870316 3.417581,106.435158 1.000001,107.000000 
z"/>
<path fill="#000000" opacity="1.000000" stroke="none" 
	d="
M151.000000,105.550018 
	C149.126099,105.888596 147.252197,105.777191 145.159393,104.925262 
	C144.992615,101.830841 145.044739,99.476929 145.515503,97.071350 
	C147.622757,97.013115 149.311371,97.006561 151.000000,97.000000 
	C151.000000,99.700012 151.000000,102.400032 151.000000,105.550018 
z"/>
<path fill="#4B4071" opacity="1.000000" stroke="none" 
	d="
M1.000001,107.399994 
	C3.417581,106.435158 5.835161,105.870316 8.988556,105.144073 
	C12.178994,104.285324 14.633617,103.587982 17.297335,103.101158 
	C17.611242,103.882545 17.716055,104.453423 17.820869,105.024292 
	C17.415590,105.304039 17.047525,105.689430 16.599316,105.847328 
	C11.671500,107.583397 6.731204,109.284042 1.397146,110.997147 
	C1.000000,109.933327 1.000000,108.866661 1.000001,107.399994 
z"/>
<path fill="#AA9EED" opacity="1.000000" stroke="none" 
	d="
M1.000000,128.428467 
	C3.518861,127.926781 6.037722,127.853569 9.100641,127.412109 
	C10.110589,127.325111 10.576480,127.606377 10.800148,128.116241 
	C7.655932,129.534821 8.295942,131.713989 9.003188,133.911926 
	C6.631744,133.940750 4.260300,133.969574 1.444428,133.999191 
	C1.000000,132.285645 1.000000,130.571289 1.000000,128.428467 
z"/>
<path fill="#959596" opacity="1.000000" stroke="none" 
	d="
M8.828959,69.975578 
	C6.494924,70.321426 4.160888,70.667274 1.413426,71.006561 
	C1.000000,69.285645 1.000000,67.571281 1.000000,65.428467 
	C3.364301,65.005791 5.728601,65.011566 8.545185,65.468925 
	C9.063353,67.292870 9.129237,68.665237 9.101376,70.035118 
	C9.007629,70.032631 8.828959,69.975578 8.828959,69.975578 
z"/>
<path fill="#53477F" opacity="1.000000" stroke="none" 
	d="
M149.003891,113.001167 
	C149.447464,113.000870 149.891052,113.000572 150.667313,113.000137 
	C151.000000,113.444443 151.000000,113.888893 151.000000,114.666664 
	C149.568756,115.232819 147.982330,115.147362 146.734238,115.755852 
	C142.317627,117.909126 138.595917,116.980438 135.564026,113.359756 
	C140.269409,113.016663 144.636642,113.008911 149.003891,113.001167 
z"/>
<path fill="#A0A09F" opacity="1.000000" stroke="none" 
	d="
M151.000000,70.571533 
	C148.607529,70.982094 146.215042,70.964188 143.400024,70.556564 
	C142.917725,69.446594 142.857941,68.726341 142.884338,67.675575 
	C143.664291,66.512337 144.358063,65.679611 145.051849,64.846893 
	C146.750839,64.897606 148.449844,64.948326 150.574417,64.999519 
	C151.000000,66.714355 151.000000,68.428719 151.000000,70.571533 
z"/>
<path fill="#9B9AA0" opacity="1.000000" stroke="none" 
	d="
M151.000000,96.571541 
	C149.311371,97.006561 147.622757,97.013115 145.096390,97.020630 
	C143.134003,96.936264 142.009369,96.850937 140.884720,96.765610 
	C144.002686,94.844307 147.120636,92.923004 150.619293,91.000854 
	C151.000000,92.714355 151.000000,94.428719 151.000000,96.571541 
z"/>
<path fill="#929293" opacity="1.000000" stroke="none" 
	d="
M8.889473,97.090958 
	C6.552425,97.060959 4.215376,97.030960 1.439163,97.000481 
	C1.000000,95.611107 1.000000,94.222221 0.999999,92.416672 
	C3.887348,93.136192 6.774698,94.272377 9.701366,95.921829 
	C9.456947,96.653717 9.173209,96.872337 8.889473,97.090958 
z"/>
<path fill="#473971" opacity="1.000000" stroke="none" 
	d="
M1.000000,113.250000 
	C4.700513,113.015076 8.401027,113.030151 12.564030,113.070801 
	C8.372741,117.196442 5.741381,117.486481 1.290809,114.178940 
	C1.000000,114.000000 1.000000,113.500000 1.000000,113.250000 
z"/>
<path fill="#181818" opacity="1.000000" stroke="none" 
	d="
M17.883118,96.050797 
	C13.432814,92.997650 12.357712,88.523041 11.882117,83.426559 
	C11.483426,79.154182 10.008150,74.982269 8.919256,70.370728 
	C8.828959,69.975578 9.007629,70.032631 9.421673,70.092453 
	C11.269705,69.668030 12.900156,69.465286 14.091703,68.633675 
	C15.885409,67.381783 17.372122,65.690033 19.852692,63.381954 
	C19.790800,63.897045 20.037664,63.072651 19.961929,62.279041 
	C19.332275,55.681171 20.088617,49.775070 26.477585,45.831612 
	C28.204920,44.765450 29.277298,42.592102 30.558569,40.859127 
	C33.050087,37.489243 32.327816,34.727493 28.321798,33.721104 
	C24.650793,32.798870 20.812843,32.541164 17.048454,31.990650 
	C16.994835,25.050129 16.994835,25.050129 24.847027,25.106211 
	C27.742149,28.357958 29.855186,29.967613 33.478062,26.624392 
	C34.484310,25.695816 37.418606,26.315716 39.233574,26.924799 
	C42.343826,27.968563 45.181427,29.825006 48.291862,30.867945 
	C53.410149,32.584122 58.832985,33.486320 63.808270,35.514572 
	C73.491913,39.462257 82.859360,44.183601 92.532349,48.159821 
	C105.142517,53.343407 115.528931,61.359333 123.144775,72.502747 
	C127.762062,79.258698 131.116821,86.877518 134.967575,94.333679 
	C134.718231,94.847153 134.460999,95.012917 133.713043,95.044533 
	C131.929779,95.015854 130.558151,94.998611 129.116150,94.762634 
	C129.045807,94.543900 128.964691,94.091583 128.826477,93.877686 
	C128.420639,93.458572 128.153015,93.253349 127.545532,92.843369 
	C126.408829,91.078384 125.670128,89.481613 124.741684,88.004089 
	C124.625351,87.818962 123.507347,88.263275 122.518036,88.570038 
	C121.465240,88.878548 120.747879,89.032951 119.694092,89.117950 
	C118.528580,89.257286 117.699486,89.466034 116.581841,89.691299 
	C115.910103,89.667381 115.526917,89.626945 114.869125,89.348740 
	C113.388184,89.129990 112.181862,89.149002 110.599152,89.097038 
	C108.490227,88.236092 106.757690,87.446121 105.464905,86.856667 
	C104.377007,87.234383 103.251701,87.975159 102.149216,87.942612 
	C98.762726,87.842644 95.384987,87.446457 91.544373,87.092667 
	C81.725883,87.067085 72.366859,87.114250 62.550137,87.089264 
	C56.091038,87.316475 50.089645,87.615837 44.053612,87.596298 
	C43.910294,86.698395 43.801613,86.119392 43.692936,85.540390 
	C43.522095,85.543053 43.351257,85.545708 43.180420,85.548363 
	C43.092926,86.329941 43.005428,87.111511 42.559635,88.076874 
	C39.804222,88.559326 37.407108,88.858009 34.644493,89.209846 
	C32.199509,89.795464 30.120029,90.327919 27.904280,90.546539 
	C27.100603,88.879242 26.433195,87.525795 25.425339,85.481941 
	C23.658169,89.155617 22.254536,92.073555 20.541368,95.055634 
	C19.448927,95.430107 18.666021,95.740448 17.883118,96.050797 
M124.921608,84.379875 
	C124.815155,84.255669 124.722038,84.114983 124.596970,84.013794 
	C124.528015,83.958015 124.405380,83.968590 124.306946,83.949249 
	C124.171280,84.753044 124.035614,85.556839 123.899956,86.360641 
	C124.260895,85.971779 124.621834,85.582924 124.921608,84.379875 
z"/>
<path fill="#1C1C1C" opacity="1.000000" stroke="none" 
	d="
M135.038773,94.108688 
	C131.116821,86.877518 127.762062,79.258698 123.144775,72.502747 
	C115.528931,61.359333 105.142517,53.343407 92.532349,48.159821 
	C82.859360,44.183601 73.491913,39.462257 63.808270,35.514572 
	C58.832985,33.486320 53.410149,32.584122 48.291862,30.867945 
	C45.181427,29.825006 42.343826,27.968563 39.233574,26.924799 
	C37.418606,26.315716 34.484310,25.695816 33.478062,26.624392 
	C29.855186,29.967613 27.742149,28.357958 25.286306,25.103195 
	C25.062958,16.925180 25.062958,16.925180 34.585339,17.426208 
	C36.136929,18.892103 37.014999,20.441629 38.309818,20.970148 
	C46.890766,24.472702 55.762295,27.321362 64.158623,31.205626 
	C79.567970,38.334221 94.748306,45.962940 109.955635,53.520935 
	C117.269737,57.156010 122.932320,62.353157 126.704872,69.954529 
	C129.150955,74.883179 132.699585,79.634552 138.836792,81.004555 
	C138.236313,84.696609 137.635849,88.388657 136.722336,92.586380 
	C135.952469,93.430931 135.495621,93.769814 135.038773,94.108688 
z"/>
<path fill="#1F1F1F" opacity="1.000000" stroke="none" 
	d="
M138.913956,80.655785 
	C132.699585,79.634552 129.150955,74.883179 126.704872,69.954529 
	C122.932320,62.353157 117.269737,57.156010 109.955635,53.520935 
	C94.748306,45.962940 79.567970,38.334221 64.158623,31.205626 
	C55.762295,27.321362 46.890766,24.472702 38.309818,20.970148 
	C37.014999,20.441629 36.136929,18.892103 35.039894,17.446611 
	C36.714680,17.044117 38.415657,17.009874 40.707680,17.313835 
	C41.976494,18.067535 42.681866,18.883623 43.327942,18.839102 
	C55.111923,18.027065 63.470852,25.718481 72.952911,30.628725 
	C76.588135,32.511208 80.317963,34.210991 84.337097,36.057247 
	C86.111282,36.749336 87.553047,37.378208 89.100876,38.328217 
	C95.004158,41.738972 100.626816,45.234997 106.641479,47.818329 
	C114.687462,51.274128 123.059174,53.687119 128.125793,61.938213 
	C131.432388,67.323067 135.880890,72.006714 139.817886,77.004471 
	C139.542297,78.105324 139.266708,79.206169 138.913956,80.655785 
z"/>
<path fill="#2A2A2A" opacity="1.000000" stroke="none" 
	d="
M88.994812,38.007076 
	C87.553047,37.378208 86.111282,36.749336 84.259537,35.725960 
	C78.264145,30.087681 72.734772,24.781635 67.041245,19.657997 
	C66.026016,18.744387 64.368317,18.388878 62.942089,18.114410 
	C56.287930,16.833872 55.671780,16.189074 55.018814,9.116382 
	C58.379166,9.095639 61.739517,9.074897 65.553467,9.486944 
	C66.866180,12.271452 67.163895,15.114788 68.702347,16.871632 
	C71.819214,20.430964 75.462227,23.585388 79.179680,26.540194 
	C81.134583,28.094044 83.704277,28.874428 85.996361,30.004072 
	C86.822861,30.574883 87.649368,31.145693 88.826294,32.150887 
	C90.116035,32.728924 91.055336,32.872578 92.242325,33.016441 
	C92.490005,33.016651 92.985367,33.015324 93.019928,33.370865 
	C94.137337,34.866982 95.009521,36.540184 96.335983,37.064812 
	C108.120964,41.725857 119.948380,46.289806 131.880157,50.555454 
	C133.238968,51.041233 135.316345,49.517040 137.060532,48.924835 
	C138.539307,48.954254 140.238892,48.536598 141.439331,49.129524 
	C142.848419,49.825500 144.662079,51.294464 144.827560,52.612991 
	C145.294708,56.335575 145.008347,60.152721 145.035385,64.389748 
	C144.358063,65.679611 143.664291,66.512337 142.579361,67.559517 
	C136.399368,57.778450 125.957764,53.339176 116.736862,48.080379 
	C108.314087,43.276775 98.304871,41.254890 88.994812,38.007076 
z"/>
<path fill="#151515" opacity="1.000000" stroke="none" 
	d="
M17.033127,32.441753 
	C20.812843,32.541164 24.650793,32.798870 28.321798,33.721104 
	C32.327816,34.727493 33.050087,37.489243 30.558569,40.859127 
	C29.277298,42.592102 28.204920,44.765450 26.477585,45.831612 
	C20.088617,49.775070 19.332275,55.681171 19.961929,62.279041 
	C20.037664,63.072651 19.790800,63.897045 19.852692,63.381954 
	C17.372122,65.690033 15.885409,67.381783 14.091703,68.633675 
	C12.900156,69.465286 11.269705,69.668030 9.515418,70.094940 
	C9.129237,68.665237 9.063353,67.292870 8.986290,65.507172 
	C8.988433,58.492500 8.892977,51.887680 9.103666,45.292637 
	C9.147640,43.916172 10.406898,41.364231 10.963530,41.402966 
	C17.872606,41.883751 17.162666,37.234562 17.033127,32.441753 
z"/>
<path fill="#252525" opacity="1.000000" stroke="none" 
	d="
M54.552887,9.079577 
	C55.671780,16.189074 56.287930,16.833872 62.942089,18.114410 
	C64.368317,18.388878 66.026016,18.744387 67.041245,19.657997 
	C72.734772,24.781635 78.264145,30.087681 83.927124,35.662743 
	C80.317963,34.210991 76.588135,32.511208 72.952911,30.628725 
	C63.470852,25.718481 55.111923,18.027065 43.327942,18.839102 
	C42.681866,18.883623 41.976494,18.067535 41.132954,17.299957 
	C41.067188,9.003727 41.067188,9.001163 49.133804,9.001023 
	C50.784855,9.000995 52.435909,9.028149 54.552887,9.079577 
z"/>
<path fill="#2E2E2E" opacity="1.000000" stroke="none" 
	d="
M85.823883,29.719067 
	C83.704277,28.874428 81.134583,28.094044 79.179680,26.540194 
	C75.462227,23.585388 71.819214,20.430964 68.702347,16.871632 
	C67.163895,15.114788 66.866180,12.271452 66.010971,9.521876 
	C67.730080,9.099127 69.445290,9.074235 71.588257,9.092823 
	C73.315254,12.224108 74.137901,15.648643 76.025719,18.320601 
	C78.839920,22.303717 82.405525,25.755947 85.823883,29.719067 
z"/>
<path fill="#383838" opacity="1.000000" stroke="none" 
	d="
M92.985367,33.015324 
	C92.985367,33.015324 92.490005,33.016651 92.097176,32.766670 
	C91.135406,32.012211 90.566475,31.507729 89.997536,31.003250 
	C86.852753,27.036909 84.087753,22.672407 80.460167,19.212240 
	C76.555870,15.488139 77.179344,12.591057 80.812759,9.120291 
	C82.468216,8.968656 83.835800,9.011486 85.579697,9.460403 
	C82.519173,18.679163 82.818588,19.979456 89.059692,23.348911 
	C92.083611,26.126423 95.031372,28.569510 98.095581,31.339212 
	C99.251701,32.424061 100.190117,33.576996 101.348083,33.874046 
	C107.198952,35.374962 113.106956,36.653149 119.198700,38.290771 
	C125.099907,41.675972 125.842270,41.357964 127.188095,35.320339 
	C127.365334,34.525196 127.724785,33.770668 128.271713,32.992943 
	C128.724808,32.985291 128.906052,32.982018 129.087280,32.978748 
	C129.417816,32.984947 129.748322,32.993538 130.078888,32.996994 
	C137.037216,33.069782 137.037216,33.069668 136.480865,40.542572 
	C134.118118,41.426487 132.213852,42.096161 130.269577,42.245842 
	C127.014336,42.496449 123.497765,43.211460 120.507362,42.325787 
	C111.228142,39.577557 102.144753,36.168159 92.985367,33.015324 
z"/>
<path fill="#464646" opacity="1.000000" stroke="none" 
	d="
M97.979134,31.012596 
	C95.031372,28.569510 92.083611,26.126423 88.984879,22.994469 
	C85.516212,17.668934 88.032150,15.393703 92.775047,14.083289 
	C91.318214,12.174036 90.175316,10.676217 89.032425,9.178396 
	C94.604424,9.119103 100.176292,9.031593 105.748444,9.007569 
	C112.915878,8.976665 112.915970,8.998602 112.733749,16.534790 
	C111.608925,18.006828 110.803291,18.996881 109.625153,19.987713 
	C108.507568,19.987093 107.762482,19.985693 106.883286,19.637913 
	C102.747505,15.032880 97.582344,17.799641 92.764603,16.938917 
	C90.615517,20.397543 92.398773,23.374105 98.277969,26.172808 
	C100.031059,27.236956 101.505119,28.129480 103.044296,29.357723 
	C103.413231,30.789579 103.717033,31.885714 103.672394,32.919411 
	C101.542343,32.242184 99.760742,31.627390 97.979134,31.012596 
z"/>
<path fill="#434343" opacity="1.000000" stroke="none" 
	d="
M98.095581,31.339211 
	C99.760742,31.627390 101.542343,32.242184 104.134872,32.923492 
	C109.522362,33.203674 114.102318,33.598843 118.673294,33.513371 
	C119.940125,33.489681 122.359802,31.601345 122.251610,31.309460 
	C121.067871,28.115959 119.487495,25.069483 117.835732,21.829985 
	C117.104378,21.783562 116.552208,21.890203 115.812309,21.853514 
	C115.384804,21.503626 115.172462,21.271929 115.109734,20.703377 
	C116.370239,20.046936 117.599983,19.868458 118.619537,19.307775 
	C119.524849,18.809921 120.196899,17.887909 120.971909,17.153122 
	C122.438072,17.105877 123.908882,17.116365 125.369415,16.999033 
	C128.176453,16.773527 129.093674,18.149338 129.017715,20.793736 
	C128.910080,24.542267 129.016754,28.296951 129.059570,32.513878 
	C128.906052,32.982018 128.724808,32.985291 128.095490,32.738995 
	C126.776505,32.780243 125.182968,32.999634 125.146072,33.372887 
	C124.762199,37.256680 122.445770,38.328495 118.994919,38.009453 
	C113.106956,36.653149 107.198952,35.374962 101.348083,33.874046 
	C100.190117,33.576996 99.251701,32.424061 98.095581,31.339211 
z"/>
<path fill="#313131" opacity="1.000000" stroke="none" 
	d="
M93.019928,33.370865 
	C102.144753,36.168159 111.228142,39.577557 120.507362,42.325787 
	C123.497765,43.211460 127.014336,42.496449 130.269577,42.245842 
	C132.213852,42.096161 134.118118,41.426487 136.441559,40.982445 
	C136.901154,43.332497 136.959518,45.690670 137.039215,48.486839 
	C135.316345,49.517040 133.238968,51.041233 131.880157,50.555454 
	C119.948380,46.289806 108.120964,41.725857 96.335983,37.064812 
	C95.009521,36.540184 94.137337,34.866982 93.019928,33.370865 
z"/>
<path fill="#3F3F3F" opacity="1.000000" stroke="none" 
	d="
M88.657196,9.132767 
	C90.175316,10.676217 91.318214,12.174036 92.775047,14.083289 
	C88.032150,15.393703 85.516212,17.668934 88.908722,22.660046 
	C82.818588,19.979456 82.519173,18.679163 85.988052,9.511281 
	C86.774063,9.133093 87.528015,9.110114 88.657196,9.132767 
z"/>
<path fill="#4E4E4E" opacity="1.000000" stroke="none" 
	d="
M120.537750,17.100216 
	C120.196899,17.887909 119.524849,18.809921 118.619537,19.307775 
	C117.599983,19.868458 116.370239,20.046936 114.731171,20.703003 
	C112.819496,20.671871 111.408577,20.329401 109.997650,19.986933 
	C110.803291,18.996881 111.608925,18.006828 112.775551,16.975315 
	C115.458893,16.971672 117.781235,17.009491 120.537750,17.100216 
z"/>
<path fill="#8F86CD" opacity="1.000000" stroke="none" 
	d="
M44.088249,87.915207 
	C50.089645,87.615837 56.091038,87.316475 62.548248,87.516960 
	C62.387993,93.620964 66.639832,99.224136 62.612598,104.907059 
	C59.911816,105.632111 57.572254,106.179680 55.307014,106.946739 
	C50.715778,108.501450 51.969383,112.457466 52.093552,115.697517 
	C52.201248,118.507751 54.266529,119.031494 56.911678,119.085983 
	C61.947979,119.189720 66.974205,119.782265 72.004616,120.171852 
	C69.007538,123.772598 66.298538,127.688919 62.870857,130.817963 
	C61.509747,132.060501 57.594109,132.649887 56.482288,131.671707 
	C49.343616,125.390991 42.576813,128.626419 35.670475,131.686844 
	C34.028675,132.414383 32.411060,133.196518 30.269489,133.673126 
	C28.485889,131.279922 27.215117,129.167145 26.190468,126.815392 
	C30.318003,122.946968 33.730679,119.037460 34.730133,113.547859 
	C34.861240,112.827751 35.559917,111.671616 36.056595,111.638794 
	C42.869015,111.188698 39.110073,108.037849 37.593906,105.706429 
	C38.410862,104.091507 39.117001,102.695656 39.823627,101.298836 
	C33.335297,98.070641 32.952694,97.033676 35.009995,89.156693 
	C37.407108,88.858009 39.804222,88.559326 42.851677,88.095154 
	C43.697430,87.924850 43.892841,87.920029 44.088249,87.915207 
z"/>
<path fill="#948CD4" opacity="1.000000" stroke="none" 
	d="
M63.007446,104.828888 
	C66.639832,99.224136 62.387993,93.620964 63.005951,87.589111 
	C72.366859,87.114250 81.725883,87.067085 91.515564,87.467957 
	C91.460297,89.671234 90.390495,91.519020 90.650024,93.156067 
	C90.918053,94.846741 92.558258,97.730644 93.460228,97.679085 
	C98.951591,97.365219 102.253456,99.363052 102.404190,104.286308 
	C104.323822,102.137924 106.172607,100.068832 108.042801,98.365692 
	C108.379410,100.158943 108.694618,101.586250 109.008591,103.256531 
	C109.007355,103.499496 109.008064,103.985817 108.980194,104.352951 
	C107.601509,105.644547 106.255363,106.575951 104.898216,107.491043 
	C103.989792,108.103561 103.065735,108.692902 102.148674,109.292618 
	C102.921562,110.065392 103.562889,111.164001 104.495720,111.540672 
	C106.243149,112.246231 108.159424,112.533600 110.346207,113.071228 
	C113.796944,115.759140 116.906944,118.370735 120.016953,120.982330 
	C119.263359,120.988937 118.509758,120.995544 117.379456,121.003632 
	C114.435341,121.023964 111.433228,120.186882 109.384682,121.227318 
	C103.940559,123.992363 97.364822,125.509697 94.798286,132.294159 
	C94.376740,133.408493 92.717499,134.792923 91.632561,134.790970 
	C86.781029,134.782196 81.930313,134.316498 76.658531,133.127365 
	C85.162010,132.282410 90.948723,129.515427 88.959320,119.398697 
	C88.955643,118.972458 88.906357,118.955444 89.105133,118.852028 
	C89.557869,118.587502 89.785553,118.395287 90.320190,118.012886 
	C94.495537,115.413765 95.233330,111.165543 93.577209,108.017296 
	C92.434464,105.844955 88.304207,105.090874 85.378845,104.079689 
	C84.080040,103.630737 82.459831,104.111588 80.533173,104.101944 
	C76.730705,104.107635 73.380562,104.181755 69.629242,104.172195 
	C67.154518,104.335312 65.080978,104.582100 63.007446,104.828888 
z"/>
<path fill="#05010C" opacity="1.000000" stroke="none" 
	d="
M80.985512,104.170380 
	C82.459831,104.111588 84.080040,103.630737 85.378845,104.079689 
	C88.304207,105.090874 92.434464,105.844955 93.577209,108.017296 
	C95.233330,111.165543 94.495537,115.413765 90.060402,117.982544 
	C89.280373,118.392670 89.093361,118.674057 88.906357,118.955444 
	C88.906357,118.955444 88.955643,118.972458 88.945198,118.948593 
	C83.576820,119.294426 78.218895,119.664124 72.432785,120.102837 
	C66.974205,119.782265 61.947979,119.189720 56.911678,119.085983 
	C54.266529,119.031494 52.201248,118.507751 52.093552,115.697517 
	C51.969383,112.457466 50.715778,108.501450 55.307014,106.946739 
	C57.572254,106.179680 59.911816,105.632111 62.612598,104.907051 
	C65.080978,104.582100 67.154518,104.335312 69.982391,104.348129 
	C74.153000,104.461952 77.569252,104.316162 80.985512,104.170380 
M87.727493,108.275269 
	C79.576729,108.197662 71.421478,107.935066 63.277386,108.132576 
	C59.972496,108.212723 56.210342,109.515121 56.417419,113.444878 
	C56.485409,114.735161 60.618496,116.559402 63.035290,116.820816 
	C67.948807,117.352303 72.977570,117.243706 77.923584,116.896599 
	C81.107597,116.673149 84.423035,115.991440 87.317505,114.702240 
	C89.679932,113.650024 91.975533,111.472122 87.727493,108.275269 
z"/>
<path fill="#ACA0F2" opacity="1.000000" stroke="none" 
	d="
M25.944344,127.054375 
	C27.215117,129.167145 28.485889,131.279922 29.903656,133.700714 
	C26.668819,134.015533 23.286987,134.022354 19.445747,134.054871 
	C15.960925,134.039963 12.935513,133.999390 9.456644,133.935364 
	C8.295942,131.713989 7.655932,129.534821 11.255918,128.163727 
	C16.261566,127.628464 20.569221,127.274307 25.143093,126.958900 
	C25.587652,127.016563 25.765997,127.035469 25.944344,127.054375 
z"/>
<path fill="#8980C5" opacity="1.000000" stroke="none" 
	d="
M125.447937,124.991318 
	C125.844116,126.109230 125.859352,127.231606 125.994644,128.626770 
	C124.459061,130.695450 122.803436,132.491364 121.097000,134.625504 
	C114.621147,138.290710 108.196106,141.617706 101.389862,144.967987 
	C101.593201,143.890244 101.924767,142.497742 102.803192,141.735245 
	C108.688515,136.626755 114.638885,131.588821 120.699303,126.690247 
	C121.856010,125.755280 123.596077,125.542023 125.447937,124.991318 
z"/>
<path fill="#9C94E0" opacity="1.000000" stroke="none" 
	d="
M120.403458,120.989059 
	C116.906944,118.370735 113.796944,115.759140 110.345169,112.670868 
	C110.670364,110.130966 111.337334,108.067726 112.146500,106.329552 
	C113.782944,108.928116 114.872528,111.680450 116.865059,113.364365 
	C119.953926,115.974800 123.658470,117.856720 127.101974,120.047516 
	C127.055511,120.477829 127.009048,120.908150 126.889023,121.654778 
	C124.806961,121.645996 122.798470,121.320900 120.403458,120.989059 
z"/>
<path fill="#242425" opacity="1.000000" stroke="none" 
	d="
M89.100876,38.328217 
	C98.304871,41.254890 108.314087,43.276775 116.736862,48.080379 
	C125.957764,53.339176 136.399368,57.778450 142.493195,67.890038 
	C142.857941,68.726341 142.917725,69.446594 142.951874,70.527328 
	C139.326691,71.207161 140.082901,73.956688 139.886536,76.608765 
	C135.880890,72.006714 131.432388,67.323067 128.125793,61.938213 
	C123.059174,53.687119 114.687462,51.274128 106.641479,47.818329 
	C100.626816,45.234997 95.004158,41.738972 89.100876,38.328217 
z"/>
<path fill="#4B494D" opacity="1.000000" stroke="none" 
	d="
M140.503311,96.830238 
	C142.009369,96.850937 143.134003,96.936264 144.677765,97.072311 
	C145.044739,99.476929 144.992615,101.830841 144.887772,104.626389 
	C141.510223,104.426132 138.185379,103.784233 134.576172,102.777817 
	C134.511475,101.581818 134.731171,100.750336 135.060760,99.645859 
	C135.790070,98.636154 136.409500,97.899452 137.028931,97.162750 
	C138.059921,97.073456 139.090912,96.984161 140.503311,96.830238 
z"/>
<path fill="#9B92C8" opacity="1.000000" stroke="none" 
	d="
M137.020386,96.733078 
	C136.409500,97.899452 135.790070,98.636154 134.739960,99.546783 
	C134.247742,98.165794 134.186203,96.610878 134.124664,95.055962 
	C134.460999,95.012917 134.718231,94.847153 134.967575,94.333679 
	C135.495621,93.769814 135.952469,93.430931 136.678741,92.987862 
	C136.969391,94.023590 136.990631,95.163506 137.020386,96.733078 
z"/>
<path fill="#191722" opacity="1.000000" stroke="none" 
	d="
M17.921322,96.370743 
	C18.666021,95.740448 19.448927,95.430107 20.601740,95.480652 
	C21.702698,101.564140 22.433748,107.286736 23.096571,113.330330 
	C22.646555,114.414833 22.264765,115.178345 21.882978,115.941856 
	C21.145273,115.211830 20.407564,114.481812 19.577948,113.499481 
	C19.006382,110.767120 18.526728,108.287064 17.933971,105.415649 
	C17.716055,104.453423 17.611242,103.882545 17.262856,102.705994 
	C16.966076,101.044662 16.912868,99.989006 16.859661,98.933350 
	C17.226284,98.185799 17.592905,97.438248 17.921322,96.370743 
z"/>
<path fill="#636366" opacity="1.000000" stroke="none" 
	d="
M16.521336,98.899963 
	C16.912868,99.989006 16.966076,101.044662 17.053761,102.495483 
	C14.633617,103.587982 12.178994,104.285324 9.321939,104.980118 
	C8.938327,102.638969 8.957144,100.300377 8.932716,97.526367 
	C9.173209,96.872337 9.456947,96.653717 9.894945,96.213715 
	C12.093806,96.950409 14.138407,97.908485 16.521336,98.899963 
z"/>
<path fill="#352C5A" opacity="1.000000" stroke="none" 
	d="
M130.450150,128.903320 
	C132.476807,123.611488 137.578857,123.351738 142.880676,128.505188 
	C138.975220,128.875809 134.942337,128.924667 130.450150,128.903320 
z"/>
<path fill="#A49BEA" opacity="1.000000" stroke="none" 
	d="
M127.348297,119.952377 
	C123.658470,117.856720 119.953926,115.974800 116.865059,113.364365 
	C114.872528,111.680450 113.782944,108.928116 112.149681,105.996719 
	C112.006203,104.895256 112.001732,104.451691 112.128189,103.673599 
	C112.330284,98.568123 110.999008,93.503014 115.143738,89.586502 
	C115.526917,89.626945 115.910103,89.667381 116.738602,89.937988 
	C117.453751,90.448456 117.723579,90.728752 117.994217,91.445892 
	C117.735863,94.004913 117.529747,96.135185 117.208115,98.247871 
	C115.977707,106.330017 119.752411,113.192009 127.308868,115.980774 
	C128.026794,115.986176 128.437073,115.986168 128.936676,116.215820 
	C129.026001,116.445480 129.163391,116.918793 129.163391,116.918793 
	C129.086197,117.356842 129.009003,117.794891 128.878174,118.562531 
	C128.414551,119.213829 128.004578,119.535538 127.348297,119.952377 
z"/>
<path fill="#8981C4" opacity="1.000000" stroke="none" 
	d="
M21.939939,116.273094 
	C22.264765,115.178345 22.646555,114.414833 23.466116,113.283188 
	C24.933548,110.933754 26.589705,109.036880 26.870291,106.954651 
	C27.587273,101.633942 27.691324,96.230644 28.040550,90.860382 
	C30.120029,90.327919 32.199509,89.795464 34.644493,89.209846 
	C32.952694,97.033676 33.335297,98.070641 39.823627,101.298836 
	C39.117001,102.695656 38.410862,104.091507 37.593906,105.706429 
	C39.110073,108.037849 42.869015,111.188698 36.056595,111.638794 
	C35.559917,111.671616 34.861240,112.827751 34.730133,113.547859 
	C33.730679,119.037460 30.318003,122.946968 26.190468,126.815392 
	C25.765997,127.035469 25.587652,127.016563 25.173073,126.672760 
	C24.664654,125.888802 24.392466,125.429733 24.120275,124.970657 
	C23.645678,122.779121 23.171080,120.587585 22.404228,118.169830 
	C22.073618,117.497192 22.035261,117.050758 21.939939,116.273094 
z"/>
<path fill="#312958" opacity="1.000000" stroke="none" 
	d="
M23.653234,124.977219 
	C24.392466,125.429733 24.664654,125.888802 24.906860,126.634018 
	C20.569221,127.274307 16.261566,127.628464 11.498140,127.935127 
	C10.576480,127.606377 10.110589,127.325111 9.345869,127.081238 
	C13.760090,126.407005 18.473143,125.695389 23.653234,124.977219 
z"/>
<path fill="#2E2E2E" opacity="1.000000" stroke="none" 
	d="
M89.808029,31.150284 
	C90.566475,31.507729 91.135406,32.012211 91.849495,32.766464 
	C91.055336,32.872578 90.116035,32.728924 89.085754,32.304909 
	C89.169685,31.753826 89.377594,31.511419 89.808029,31.150284 
z"/>
<path fill="#594B8D" opacity="1.000000" stroke="none" 
	d="
M148.878647,112.686020 
	C144.636642,113.008911 140.269409,113.016663 135.433807,113.038574 
	C133.938477,113.032188 132.911530,113.011642 131.463562,112.605515 
	C131.440033,110.824684 131.837494,109.429436 132.234955,108.034180 
	C138.159363,107.886612 144.225418,107.199501 148.878647,112.686020 
z"/>
<path fill="#1A1825" opacity="1.000000" stroke="none" 
	d="
M132.164459,107.661545 
	C131.837494,109.429436 131.440033,110.824684 131.077911,112.592674 
	C130.687195,114.227409 130.261108,115.489418 129.499207,116.835106 
	C129.163391,116.918793 129.026001,116.445480 129.001648,115.893951 
	C128.575775,114.600182 128.174271,113.857941 127.877541,112.923843 
	C127.933128,112.304626 127.883949,111.877251 127.902664,111.034180 
	C128.043991,107.748863 128.117416,104.879242 128.515900,102.041641 
	C129.903519,103.055077 130.966110,104.036484 132.028717,105.017891 
	C132.050461,105.774902 132.072205,106.531906 132.164459,107.661545 
z"/>
<path fill="#21202B" opacity="1.000000" stroke="none" 
	d="
M132.289948,104.889175 
	C130.966110,104.036484 129.903519,103.055077 128.601868,101.654419 
	C128.637375,99.150574 128.911942,97.065971 129.186508,94.981369 
	C130.558151,94.998611 131.929779,95.015854 133.713043,95.044533 
	C134.186203,96.610878 134.247742,98.165794 134.630081,99.819778 
	C134.731171,100.750336 134.511475,101.581818 134.195160,102.724075 
	C133.582748,103.610046 133.066971,104.185257 132.289948,104.889175 
z"/>
<path fill="#978FD8" opacity="1.000000" stroke="none" 
	d="
M108.021393,97.999741 
	C106.172607,100.068832 104.323822,102.137924 102.404190,104.286308 
	C102.253456,99.363052 98.951591,97.365219 93.460228,97.679085 
	C92.558258,97.730644 90.918053,94.846741 90.650024,93.156067 
	C90.390495,91.519020 91.460297,89.671234 91.975037,87.540710 
	C95.384987,87.446457 98.762726,87.842644 102.149216,87.942612 
	C103.251701,87.975159 104.377007,87.234383 105.464905,86.856667 
	C106.757690,87.446121 108.490227,88.236092 110.442146,89.438919 
	C109.781479,92.567764 108.901436,95.283752 108.021393,97.999741 
z"/>
<path fill="#B3A9FB" opacity="1.000000" stroke="none" 
	d="
M129.116150,94.762634 
	C128.911942,97.065971 128.637375,99.150574 128.276825,101.622406 
	C128.117416,104.879242 128.043991,107.748863 127.489059,110.937408 
	C123.246193,110.503479 121.165207,108.452286 121.532356,104.374893 
	C122.011063,99.058693 122.416504,93.735901 122.853462,88.415939 
	C123.507347,88.263275 124.625351,87.818962 124.741684,88.004089 
	C125.670128,89.481613 126.408829,91.078384 127.638504,93.095062 
	C128.369125,93.731537 128.666901,93.911560 128.964691,94.091583 
	C128.964691,94.091583 129.045807,94.543900 129.116150,94.762634 
z"/>
<path fill="#847DBC" opacity="1.000000" stroke="none" 
	d="
M27.904280,90.546539 
	C27.691324,96.230644 27.587273,101.633942 26.870291,106.954651 
	C26.589705,109.036880 24.933548,110.933754 23.534342,112.962189 
	C22.433748,107.286736 21.702698,101.564140 20.911276,95.416519 
	C22.254536,92.073555 23.658169,89.155617 25.425339,85.481941 
	C26.433195,87.525795 27.100603,88.879242 27.904280,90.546539 
z"/>
<path fill="#ABA2F6" opacity="1.000000" stroke="none" 
	d="
M122.518036,88.570038 
	C122.416504,93.735901 122.011063,99.058693 121.532356,104.374893 
	C121.165207,108.452286 123.246193,110.503479 127.421158,111.353119 
	C127.883949,111.877251 127.933128,112.304626 127.691422,113.387856 
	C127.267426,114.687599 127.134323,115.331490 127.001221,115.975372 
	C119.752411,113.192009 115.977707,106.330017 117.208115,98.247871 
	C117.529747,96.135185 117.735863,94.004913 118.280502,91.373871 
	C119.054153,90.305801 119.542336,89.746574 120.030518,89.187347 
	C120.747879,89.032951 121.465240,88.878548 122.518036,88.570038 
z"/>
<path fill="#A198DD" opacity="1.000000" stroke="none" 
	d="
M108.042801,98.365692 
	C108.901436,95.283752 109.781479,92.567764 110.818527,89.509888 
	C112.181862,89.149002 113.388184,89.129990 114.869125,89.348740 
	C110.999008,93.503014 112.330284,98.568123 111.791809,103.670296 
	C110.875938,103.997108 110.427368,103.992691 109.841164,103.803215 
	C109.500656,103.384079 109.269417,103.182549 109.009819,103.013557 
	C108.694618,101.586250 108.379410,100.158943 108.042801,98.365692 
z"/>
<path fill="#A198DD" opacity="1.000000" stroke="none" 
	d="
M119.694092,89.117943 
	C119.542336,89.746574 119.054153,90.305801 118.279686,90.937042 
	C117.723579,90.728752 117.453751,90.448456 117.027161,89.921471 
	C117.699486,89.466034 118.528580,89.257286 119.694092,89.117943 
z"/>
<path fill="#B6ADED" opacity="1.000000" stroke="none" 
	d="
M124.952194,84.786972 
	C124.621834,85.582924 124.260895,85.971779 123.899948,86.360641 
	C124.035614,85.556839 124.171280,84.753044 124.306946,83.949249 
	C124.405380,83.968590 124.528015,83.958015 124.596970,84.013794 
	C124.722038,84.114983 124.815155,84.255669 124.952194,84.786972 
z"/>
<path fill="#7E799A" opacity="1.000000" stroke="none" 
	d="
M44.053612,87.596298 
	C43.892841,87.920029 43.697430,87.924850 43.209976,87.911377 
	C43.005428,87.111511 43.092926,86.329941 43.180420,85.548363 
	C43.351257,85.545708 43.522095,85.543053 43.692936,85.540390 
	C43.801613,86.119392 43.910294,86.698395 44.053612,87.596298 
z"/>
<path fill="#21202B" opacity="1.000000" stroke="none" 
	d="
M128.826477,93.877686 
	C128.666901,93.911560 128.369125,93.731537 127.978363,93.299820 
	C128.153015,93.253349 128.420639,93.458572 128.826477,93.877686 
z"/>
<path fill="#3E3E3E" opacity="1.000000" stroke="none" 
	d="
M119.198700,38.290771 
	C122.445770,38.328495 124.762199,37.256680 125.146072,33.372887 
	C125.182968,32.999634 126.776505,32.780243 127.823624,32.743378 
	C127.724785,33.770668 127.365334,34.525196 127.188095,35.320339 
	C125.842270,41.357964 125.099907,41.675972 119.198700,38.290771 
z"/>
<path fill="#5D5D5D" opacity="1.000000" stroke="none" 
	d="
M109.625153,19.987713 
	C111.408577,20.329401 112.819496,20.671871 114.608986,21.014717 
	C115.172462,21.271929 115.384804,21.503626 115.876099,22.204079 
	C117.866905,26.179207 115.569267,27.655453 112.664345,28.998123 
	C111.882507,29.006842 111.435722,29.013926 110.589722,29.018749 
	C109.125946,29.015972 108.061378,29.015457 106.814011,28.735317 
	C103.797943,25.813501 100.964668,23.171310 98.131401,20.529119 
	C98.443207,19.994396 98.755005,19.459671 99.066811,18.924948 
	C101.717003,19.278063 104.367195,19.631178 107.017387,19.984293 
	C107.762482,19.985693 108.507568,19.987093 109.625153,19.987713 
z"/>
<path fill="#4D4D4D" opacity="1.000000" stroke="none" 
	d="
M106.996803,29.014942 
	C108.061378,29.015457 109.125946,29.015972 110.654678,29.262737 
	C111.745781,29.674303 112.372726,29.839617 113.407288,30.003456 
	C119.329247,29.362799 119.625824,28.796558 118.014908,21.983051 
	C119.487495,25.069483 121.067871,28.115959 122.251610,31.309460 
	C122.359802,31.601345 119.940125,33.489681 118.673294,33.513371 
	C114.102318,33.598843 109.522362,33.203674 104.483315,32.985928 
	C103.717033,31.885714 103.413231,30.789579 103.351273,29.401848 
	C104.727692,29.078480 105.862244,29.046711 106.996803,29.014942 
z"/>
<path fill="#545354" opacity="1.000000" stroke="none" 
	d="
M106.814011,28.735317 
	C105.862244,29.046711 104.727692,29.078480 103.286156,29.066126 
	C101.505119,28.129480 100.031059,27.236956 98.205460,25.835266 
	C96.237709,22.555862 94.621490,19.785625 93.005272,17.015388 
	C97.582344,17.799641 102.747505,15.032880 106.883286,19.637913 
	C104.367195,19.631178 101.717003,19.278063 99.066811,18.924948 
	C98.755005,19.459671 98.443207,19.994396 98.131401,20.529119 
	C100.964668,23.171310 103.797943,25.813501 106.814011,28.735317 
z"/>
<path fill="#4D4D4D" opacity="1.000000" stroke="none" 
	d="
M92.764603,16.938915 
	C94.621490,19.785625 96.237709,22.555862 97.926430,25.663643 
	C92.398773,23.374105 90.615517,20.397543 92.764603,16.938915 
z"/>
<path fill="#565656" opacity="1.000000" stroke="none" 
	d="
M117.835732,21.829987 
	C119.625824,28.796558 119.329247,29.362799 113.407303,29.751320 
	C112.999603,29.332602 112.999496,29.164545 112.999390,28.996490 
	C115.569267,27.655453 117.866905,26.179207 116.063828,22.347410 
	C116.552208,21.890203 117.104378,21.783562 117.835732,21.829987 
z"/>
<path fill="#978FD8" opacity="1.000000" stroke="none" 
	d="
M109.978806,103.988281 
	C110.427368,103.992691 110.875938,103.997108 111.660881,104.004822 
	C112.001732,104.451691 112.006203,104.895256 112.007492,105.671661 
	C111.337334,108.067726 110.670364,110.130966 110.004433,112.594559 
	C108.159424,112.533600 106.243149,112.246231 104.495720,111.540672 
	C103.562889,111.164001 102.921562,110.065392 102.148674,109.292618 
	C103.065735,108.692902 103.989792,108.103561 104.898216,107.491043 
	C106.255363,106.575951 107.601509,105.644547 109.222832,104.355080 
	C109.493332,103.990074 109.978806,103.988274 109.978806,103.988281 
z"/>
<path fill="#080622" opacity="1.000000" stroke="none" 
	d="
M80.533173,104.101944 
	C77.569252,104.316162 74.153000,104.461952 70.383583,104.431808 
	C73.380562,104.181755 76.730705,104.107635 80.533173,104.101944 
z"/>
<path fill="#A49BEA" opacity="1.000000" stroke="none" 
	d="
M109.841164,103.803207 
	C109.978806,103.988274 109.493332,103.990074 109.250702,103.987946 
	C109.008064,103.985817 109.007355,103.499496 109.008591,103.256531 
	C109.269417,103.182549 109.500656,103.384079 109.841164,103.803207 
z"/>
<path fill="#928AD2" opacity="1.000000" stroke="none" 
	d="
M89.105133,118.852020 
	C89.093361,118.674057 89.280373,118.392670 89.727188,118.141632 
	C89.785553,118.395287 89.557869,118.587502 89.105133,118.852020 
z"/>
<path fill="#8D6999" opacity="1.000000" stroke="none" 
	d="
M88.060143,108.537964 
	C91.975533,111.472122 89.679932,113.650024 87.317505,114.702240 
	C84.423035,115.991440 81.107597,116.673149 77.923584,116.896599 
	C72.977570,117.243706 67.948807,117.352303 63.035290,116.820816 
	C60.618496,116.559402 56.485409,114.735161 56.417419,113.444878 
	C56.210342,109.515121 59.972496,108.212723 63.277386,108.132576 
	C71.421478,107.935066 79.576729,108.197662 88.060143,108.537964 
z"/>
<path fill="#B3A9FB" opacity="1.000000" stroke="none" 
	d="
M127.308868,115.980774 
	C127.134323,115.331490 127.267426,114.687599 127.586647,113.579704 
	C128.174271,113.857941 128.575775,114.600182 128.912323,115.664291 
	C128.437073,115.986168 128.026794,115.986176 127.308868,115.980774 
z"/>
<path fill="#545354" opacity="1.000000" stroke="none" 
	d="
M112.664345,28.998123 
	C112.999496,29.164545 112.999603,29.332602 112.999687,29.752792 
	C112.372726,29.839617 111.745781,29.674303 111.053879,29.264999 
	C111.435722,29.013926 111.882507,29.006842 112.664345,28.998123 
z"/>
</svg>